<?xml version="1.0" encoding="utf-8"?>
<!-- Generator: Adobe Illustrator 18.1.0, SVG Export Plug-In . SVG Version: 6.00 Build 0)  -->
<!DOCTYPE svg PUBLIC "-//W3C//DTD SVG 1.1//EN" "http://www.w3.org/Graphics/SVG/1.1/DTD/svg11.dtd">
<svg version="1.1" id="Layer_1" xmlns="http://www.w3.org/2000/svg" xmlns:xlink="http://www.w3.org/1999/xlink" x="0px" y="0px"
	 viewBox="0 0 208 208" enable-background="new 0 0 208 208" xml:space="preserve">
<g>
	<path fill="#E7E5E6" d="M146.4,141.6l0.6-5.6l-10.5,10.5l-12.7-12.7l12.9-12.9l10.8,10.8l0.5-4.5l-8.8-8.8l10.8-10.8l0.9-8.3
		l-11.5-11.5L152.2,75l1.1,1.1l0.8-7.9l-1.9,1.9l-12.7-12.7l8.9-8.9h-5l-6.4,6.4l-6.4-6.4h-5l8.9,8.9l-12.9,12.9l-12.7-12.7l9-9h-5
		l-6.6,6.6l-6.6-6.6h-5l9,9L91.1,70.3L78.3,57.6l9.2-9.2h-5l-6.7,6.7l-6.7-6.7h-5l9.2,9.2L60.5,70.5l-1.7-1.7l0.7,7.6l1-1l12.7,12.7
		L61.5,99.8l0.7,8l10.9,10.9l-9.1,9.1l0.4,4.6l11.2-11.2l12.7,12.7l-12.9,12.9L64.7,136l0.5,5.4l7.8,7.8l-6.6,6.6l0.4,4.6l8.7-8.7
		l12.7,12.7l-5.2,5.2h5l2.7-2.7l2.7,2.7h5l-5.2-5.2l12.9-12.9l12.7,12.7l-5.3,5.3h5l2.8-2.8l2.8,2.8h5l-5.3-5.3l12.9-12.9l8,8
		l0.5-4.5l-6-6L146.4,141.6z M121.3,131.3l-12.7-12.7l12.9-12.9l12.7,12.7L121.3,131.3z M106.1,116.1l-12.7-12.7l12.9-12.9
		l12.7,12.7L106.1,116.1z M149.5,103.1l-12.9,12.9L124,103.2l12.9-12.9L149.5,103.1z M137,59.8l12.7,12.7l-12.9,12.9l-12.7-12.7
		L137,59.8z M134.3,87.9l-12.9,12.9L108.8,88l12.9-12.9L134.3,87.9z M106.4,59.9l12.7,12.7l-12.9,12.9L93.5,72.8L106.4,59.9z
		 M103.8,88l-12.9,12.9L78.2,88.2l12.9-12.9L103.8,88z M63,72.9l12.9-12.9l12.7,12.7L75.7,85.7L63,72.9z M62.8,103.5l12.9-12.9
		l12.7,12.7l-12.9,12.9L62.8,103.5z M78.1,118.7l12.9-12.9l12.7,12.7l-12.9,12.9L78.1,118.7z M90.6,162l-12.7-12.7l12.9-12.9
		l12.7,12.7L90.6,162z M93.3,133.9l12.9-12.9l12.7,12.7L106,146.6L93.3,133.9z M121.2,161.8l-12.7-12.7l12.9-12.9L134,149
		L121.2,161.8z"/>
	<path fill="#CDCCCC" d="M50.5,42.4L62,175.7H149l13.8-133.3H50.5z M155.5,48.9l-12.5,120.2H68L57.6,48.9H155.5z"/>
	<polygon fill="#CDCCCC" points="20.9,149.9 34.5,146.1 35.3,158.6 46.4,165.6 41.6,175.7 10.8,175.7 2.1,163.4 5.7,155.7 
		16.7,156.6 	"/>
	<polygon fill="#E7E5E6" points="38.9,153.3 47.3,157.7 46.4,162 55.4,167.6 51.5,175.7 26.7,175.7 20.9,170 25.9,157.3 31.4,160.3 
			"/>
	<polygon fill="#E7E5E6" points="173.1,149.4 181.4,156.4 186,156.4 190.1,167 186,175.7 159.4,175.7 154.7,168.1 162.4,160.6 
		165.2,150.6 	"/>
</g>
</svg>
