<?xml version="1.0" encoding="utf-8"?>
<!-- Generator: Adobe Illustrator 22.1.0, SVG Export Plug-In . SVG Version: 6.00 Build 0)  -->
<svg version="1.1" id="Layer_1" xmlns="http://www.w3.org/2000/svg" xmlns:xlink="http://www.w3.org/1999/xlink" x="0px" y="0px"
	 viewBox="0 0 180.3 72.8" style="enable-background:new 0 0 180.3 72.8;" xml:space="preserve">
<style type="text/css">
	.st0{fill:#0072C6;}
	.st1{fill:#FFFFFF;}
</style>
<g>
	<rect class="st0" width="180.3" height="72.8"/>
	<g>
		<path class="st1" d="M28.2,37.7c-0.1,0.5-0.2,1.3-0.3,2.3l-0.1,0.7h-0.1c-0.1-0.8-0.2-1.8-0.5-2.9l-2.7-11.6h-5.2v19.1h3.1V35.2
			c0-1.8,0-3.5-0.1-5.3h0.1l0.5,3.4l2.9,12.1h3.4L32,33.1c0.3-1.3,0.5-2.4,0.6-3.2h0.1c-0.1,1.9-0.1,3.4-0.1,4.3v11.1h3.2V26.2h-5
			L28.2,37.7z M55.3,38.8h1.5c1.8,0,3.3-0.6,4.4-1.8c1.1-1.2,1.7-2.8,1.7-4.7c0-2-0.5-3.5-1.5-4.5c-1-1-2.4-1.6-4.2-1.6h-5.5v19.1
			h3.7V38.8z M55.3,29.4h1.2c0.8,0,1.4,0.3,1.8,0.8c0.5,0.5,0.7,1.3,0.7,2.3c0,2.1-0.8,3.1-2.5,3.1h-1.3V29.4z M41.7,45.3h3.9
			l4.9-19.1h-3.7l-2.7,12.5c-0.1,0.7-0.2,1.4-0.3,2l-0.1,0.5h-0.1c-0.1-1-0.2-1.8-0.3-2.4l-2.7-12.6h-3.8L41.7,45.3z M39.8,68.1
			L8.1,36.4L39.8,4.7l31.7,31.7L39.8,68.1z"/>
		<path class="st1" d="M90.7,27.6v-9.4c0-0.8,0-2,0.1-3.7h-0.1c-0.1,0.7-0.3,1.6-0.5,2.7l-2.4,10.4H85l-2.5-10.2l-0.4-2.9H82
			c0.1,1.5,0.1,3,0.1,4.5v8.6h-2.6V11.4h4.4l2.3,9.9c0.2,1,0.4,1.8,0.4,2.5h0.1l0.1-0.6c0.1-0.9,0.2-1.6,0.3-2l2.1-9.8h4.2v16.2
			H90.7z"/>
		<path class="st1" d="M97.4,14.4c-0.5,0-0.9-0.2-1.3-0.5c-0.3-0.4-0.5-0.8-0.5-1.3c0-0.5,0.2-1,0.5-1.3c0.3-0.3,0.8-0.5,1.3-0.5
			c0.5,0,1,0.2,1.3,0.5c0.3,0.3,0.5,0.8,0.5,1.3c0,0.5-0.2,1-0.5,1.3C98.4,14.3,97.9,14.4,97.4,14.4z M95.9,27.6V16h3v11.6H95.9z"/>
		<path class="st1" d="M107.6,27.1c-0.6,0.4-1.4,0.7-2.4,0.7c-1.3,0-2.4-0.5-3.2-1.6c-0.9-1.1-1.3-2.5-1.3-4.1c0-2,0.4-3.5,1.3-4.6
			c0.9-1.1,2.1-1.7,3.5-1.7c0.9,0,1.6,0.2,2,0.5v2.6c-0.4-0.4-0.9-0.7-1.6-0.7c-0.7,0-1.2,0.3-1.6,1c-0.4,0.7-0.6,1.5-0.6,2.6
			c0,1.1,0.2,2,0.6,2.6c0.4,0.6,0.9,0.9,1.5,0.9c0.6,0,1.2-0.2,1.7-0.6V27.1z"/>
		<path class="st1" d="M115.5,18.8c-0.3-0.1-0.7-0.2-1-0.2c-1.4,0-2.2,1.1-2.2,3.2v5.8h-3V16h3v1.9h0c0.4-1.4,1.2-2.1,2.4-2.1
			c0.2,0,0.5,0,0.7,0.1V18.8z"/>
		<path class="st1" d="M120.5,27.8c-1.5,0-2.6-0.5-3.5-1.6c-0.8-1-1.2-2.5-1.2-4.4c0-1.9,0.4-3.4,1.3-4.4c0.8-1,2-1.6,3.5-1.6
			c1.5,0,2.6,0.5,3.5,1.5c0.8,1,1.2,2.5,1.2,4.3c0,2-0.4,3.5-1.2,4.6C123.2,27.3,122,27.8,120.5,27.8z M120.5,18.2
			c-1.1,0-1.7,1.2-1.7,3.5c0,2.4,0.6,3.6,1.7,3.6c1.1,0,1.7-1.2,1.7-3.7C122.2,19.4,121.6,18.2,120.5,18.2z"/>
		<path class="st1" d="M126.7,27.2v-2.6c0.8,0.6,1.7,0.9,2.6,0.9c0.9,0,1.4-0.4,1.4-1.1c0-0.3-0.1-0.6-0.4-0.8
			c-0.2-0.2-0.6-0.4-1-0.7c-1.1-0.6-1.8-1.2-2.1-1.8c-0.3-0.6-0.5-1.2-0.5-1.8c0-1,0.4-1.9,1.1-2.5c0.7-0.6,1.7-1,3-1
			c0.9,0,1.7,0.1,2.4,0.4v2.5c-0.8-0.4-1.5-0.7-2.1-0.7c-0.9,0-1.4,0.4-1.4,1.1c0,0.2,0.1,0.5,0.2,0.7c0.2,0.2,0.6,0.5,1.2,0.9
			c1,0.6,1.7,1.1,2,1.7c0.3,0.5,0.5,1.2,0.5,1.9c0,1-0.3,1.9-1,2.5c-0.7,0.7-1.7,1-3,1C128.3,27.8,127.4,27.6,126.7,27.2z"/>
		<path class="st1" d="M139.5,27.8c-1.5,0-2.6-0.5-3.5-1.6c-0.8-1-1.2-2.5-1.2-4.4c0-1.9,0.4-3.4,1.3-4.4c0.8-1,2-1.6,3.5-1.6
			c1.5,0,2.6,0.5,3.5,1.5c0.8,1,1.2,2.5,1.2,4.3c0,2-0.4,3.5-1.2,4.6C142.2,27.3,141,27.8,139.5,27.8z M139.5,18.2
			c-1.1,0-1.7,1.2-1.7,3.5c0,2.4,0.6,3.6,1.7,3.6c1.1,0,1.7-1.2,1.7-3.7C141.2,19.4,140.6,18.2,139.5,18.2z"/>
		<path class="st1" d="M151.2,12.8c-0.2-0.1-0.5-0.1-0.9-0.1c-0.8,0-1.2,0.5-1.2,1.5V16h1.9v2.4h-1.9v9.2h-2.9v-9.2h-1.3V16h1.3
			v-1.7c0-1.3,0.3-2.2,1-3c0.7-0.7,1.6-1.1,2.9-1.1c0.3,0,0.5,0,0.7,0.1l0.5,0.1V12.8z"/>
		<path class="st1" d="M157.6,27.4c-0.6,0.2-1.3,0.4-1.9,0.4c-2,0-3-1.2-3-3.5v-5.8h-2.4V16h2.4v-2.6l0.2-0.1
			c1.7-0.6,2.6-0.8,2.7-0.8V16h2v2.4h-2V24c0,0.9,0.4,1.4,1.1,1.4c0.3,0,0.6-0.1,0.9-0.2V27.4z"/>
		<path class="st1" d="M161.9,18.6c-0.8,0-1.5-0.3-2-0.8c-0.5-0.5-0.8-1.2-0.8-2c0-0.8,0.3-1.4,0.8-2c0.5-0.5,1.2-0.8,2-0.8
			c0.8,0,1.5,0.3,2,0.8c0.5,0.5,0.8,1.2,0.8,2c0,0.8-0.3,1.4-0.8,2C163.4,18.3,162.7,18.6,161.9,18.6z M161.9,13.4
			c-0.7,0-1.3,0.2-1.7,0.7c-0.5,0.5-0.7,1-0.7,1.7c0,0.7,0.2,1.2,0.7,1.7c0.5,0.4,1,0.7,1.7,0.7c0.7,0,1.2-0.2,1.7-0.7
			c0.5-0.5,0.7-1,0.7-1.7c0-0.7-0.2-1.2-0.7-1.7C163.2,13.7,162.6,13.4,161.9,13.4z M162.5,17.5l-0.3-0.9c-0.1-0.3-0.3-0.5-0.5-0.5
			h-0.3v1.4h-0.7V14h1.1c0.4,0,0.8,0.1,1,0.3c0.2,0.2,0.3,0.4,0.3,0.7c0,0.5-0.3,0.8-0.8,0.9v0c0.2,0.1,0.4,0.2,0.5,0.6l0.4,1H162.5
			z M161.4,14.6v1h0.5c0.2,0,0.3,0,0.4-0.1c0.1-0.1,0.2-0.2,0.2-0.4c0-0.3-0.2-0.5-0.7-0.5H161.4z"/>
		<path class="st1" d="M88,45v-8.2c0-0.5,0-0.9,0.1-1.3l0.1-0.9h-0.1c-0.1,0.7-0.2,1.2-0.4,1.5L84.8,45h-0.9L81,36.2
			c-0.1-0.2-0.2-0.7-0.3-1.7h-0.1c0.1,0.8,0.1,1.6,0.1,2.4v8h-1.1V32.8h1.6l2.9,8.8c0.1,0.4,0.2,0.9,0.3,1.4h0l0.3-1.4l2.8-8.7h1.6
			V45H88z"/>
		<path class="st1" d="M94.5,45.1c-1,0-1.8-0.4-2.4-1.2c-0.6-0.8-0.8-1.9-0.8-3.3c0-1.4,0.3-2.6,0.9-3.4c0.6-0.8,1.4-1.2,2.4-1.2
			c1,0,1.8,0.4,2.4,1.2c0.6,0.8,0.9,1.9,0.9,3.2c0,1.4-0.3,2.6-0.9,3.4C96.4,44.7,95.6,45.1,94.5,45.1z M94.5,37.2
			c-0.6,0-1.1,0.3-1.5,0.9c-0.4,0.6-0.5,1.4-0.5,2.5c0,2.3,0.7,3.4,2,3.4c1.3,0,2-1.2,2-3.5c0-1.1-0.2-1.9-0.5-2.5
			C95.6,37.5,95.2,37.2,94.5,37.2z"/>
		<path class="st1" d="M99.2,44.7v-1.2c0.6,0.4,1.3,0.6,1.9,0.6c1,0,1.5-0.5,1.5-1.4c0-0.3-0.1-0.6-0.3-0.8
			c-0.2-0.2-0.6-0.5-1.1-0.8c-0.8-0.5-1.4-0.9-1.6-1.3c-0.2-0.4-0.4-0.8-0.4-1.3c0-0.7,0.3-1.3,0.8-1.7c0.5-0.5,1.2-0.7,1.9-0.7
			c0.6,0,1.2,0.1,1.7,0.3v1.2c-0.6-0.3-1.1-0.5-1.6-0.5c-0.5,0-0.8,0.1-1.1,0.4c-0.3,0.2-0.4,0.6-0.4,1c0,0.3,0.1,0.5,0.3,0.8
			c0.2,0.2,0.6,0.5,1.2,0.9c0.8,0.5,1.4,0.9,1.6,1.3c0.2,0.4,0.4,0.8,0.4,1.3c0,0.7-0.2,1.3-0.7,1.7c-0.5,0.5-1.2,0.7-2,0.7
			C100.3,45.1,99.7,45,99.2,44.7z"/>
		<path class="st1" d="M108.8,44.9c-0.3,0.1-0.7,0.2-1.1,0.2c-1.3,0-1.9-0.7-1.9-2.2v-5.6h-1.2v-1h1.2v-2.2l1.2-0.4v2.6h1.8v1H107
			v5.4c0,0.9,0.3,1.3,1,1.3c0.3,0,0.6-0.1,0.8-0.2V44.9z"/>
		<path class="st1" d="M117.4,45h-1.3l-3.4-12.2h1.4l2.4,9.2c0.1,0.4,0.2,0.8,0.2,1.3h0c0-0.1,0.1-0.6,0.3-1.3l2.5-9.1h1.3L117.4,45
			z"/>
		<path class="st1" d="M125.8,45v-1.3h0c-0.4,1-1.2,1.5-2.2,1.5c-0.6,0-1.2-0.2-1.5-0.7c-0.4-0.5-0.6-1-0.6-1.7
			c0-1.5,0.8-2.4,2.3-2.8l2.1-0.5v-0.6c0-1.1-0.5-1.7-1.5-1.7c-0.7,0-1.4,0.3-2.2,0.9v-1.2c0.8-0.5,1.6-0.7,2.4-0.7
			c1.7,0,2.6,0.9,2.6,2.8v6H125.8z M125.8,40.4l-1.7,0.4c-1,0.2-1.4,0.8-1.4,1.7c0,0.5,0.1,0.9,0.4,1.1c0.3,0.3,0.6,0.4,1,0.4
			c0.6,0,1-0.2,1.3-0.7c0.3-0.4,0.5-1,0.5-1.7V40.4z"/>
		<path class="st1" d="M129.2,45V32.1h1.2V45H129.2z"/>
		<path class="st1" d="M137.1,45v-1.3h0c-0.5,1-1.2,1.5-2.2,1.5c-1.6,0-2.4-0.9-2.4-2.8v-6.1h1.2v5.8c0,1.3,0.5,2,1.6,2
			c0.5,0,1-0.2,1.3-0.6c0.3-0.4,0.5-0.9,0.5-1.6v-5.6h1.2V45H137.1z"/>
		<path class="st1" d="M144.4,45v-1.3h0c-0.4,1-1.2,1.5-2.2,1.5c-0.6,0-1.2-0.2-1.5-0.7c-0.4-0.5-0.6-1-0.6-1.7
			c0-1.5,0.8-2.4,2.3-2.8l2.1-0.5v-0.6c0-1.1-0.5-1.7-1.5-1.7c-0.7,0-1.4,0.3-2.2,0.9v-1.2c0.8-0.5,1.6-0.7,2.4-0.7
			c1.7,0,2.6,0.9,2.6,2.8v6H144.4z M144.4,40.4l-1.7,0.4c-1,0.2-1.4,0.8-1.4,1.7c0,0.5,0.1,0.9,0.4,1.1c0.2,0.3,0.6,0.4,1,0.4
			c0.6,0,1-0.2,1.3-0.7c0.3-0.4,0.5-1,0.5-1.7V40.4z"/>
		<path class="st1" d="M149.1,43.9L149.1,43.9l0,1.1h-1.2V32.1h1.2v5.6h0c0.5-1.1,1.2-1.6,2.3-1.6c0.9,0,1.5,0.4,2,1.1
			c0.5,0.7,0.7,1.7,0.7,3c0,1.5-0.3,2.8-0.8,3.6c-0.5,0.9-1.3,1.3-2.3,1.3C150.1,45.1,149.5,44.7,149.1,43.9z M149,40.1v1.2
			c0,0.8,0.2,1.4,0.5,1.9c0.3,0.5,0.8,0.8,1.3,0.8c1.3,0,2-1.2,2-3.7c0-1-0.2-1.8-0.5-2.3c-0.3-0.5-0.8-0.8-1.3-0.8
			c-0.6,0-1.1,0.3-1.4,0.8C149.2,38.6,149,39.3,149,40.1z"/>
		<path class="st1" d="M155.8,45V32.1h1.2V45H155.8z"/>
		<path class="st1" d="M160.1,40.9c0,2.1,0.8,3.1,2.3,3.1c0.7,0,1.3-0.2,2-0.7v1.2c-0.7,0.4-1.4,0.6-2.2,0.6c-1.1,0-1.9-0.4-2.5-1.2
			c-0.6-0.8-0.9-1.9-0.9-3.4c0-1.3,0.3-2.4,0.9-3.2c0.6-0.8,1.4-1.2,2.4-1.2c1.9,0,2.8,1.3,2.8,4v0.8H160.1z M163.6,39.9
			c0-1.9-0.5-2.8-1.6-2.8c-0.5,0-1,0.2-1.3,0.7c-0.3,0.5-0.5,1.2-0.6,2.1H163.6z"/>
		<path class="st1" d="M80.9,57.8v4.6h-1.3V50.2h2.8c1.1,0,1.9,0.3,2.5,0.9c0.6,0.6,0.9,1.5,0.9,2.7c0,1.1-0.3,2.1-1,2.8
			c-0.6,0.8-1.5,1.1-2.6,1.1H80.9z M80.9,51.3v5.3H82c0.7,0,1.3-0.2,1.7-0.7c0.4-0.5,0.6-1.1,0.6-2c0-1.7-0.7-2.6-2.2-2.6H80.9z"/>
		<path class="st1" d="M91.3,54.9c-0.3-0.1-0.6-0.2-0.8-0.2c-1.3,0-1.9,1.1-1.9,3.2v4.4h-1.2v-8.7h1.2v1.5h0
			c0.3-1.1,0.9-1.7,1.9-1.7c0.3,0,0.5,0,0.7,0.1V54.9z"/>
		<path class="st1" d="M94.8,62.5c-1,0-1.8-0.4-2.4-1.2c-0.6-0.8-0.8-1.9-0.8-3.2c0-1.4,0.3-2.6,0.9-3.4c0.6-0.8,1.4-1.2,2.4-1.2
			c1,0,1.8,0.4,2.4,1.2c0.6,0.8,0.9,1.9,0.9,3.2c0,1.4-0.3,2.6-0.9,3.4C96.7,62.1,95.9,62.5,94.8,62.5z M94.9,54.6
			c-0.6,0-1.1,0.3-1.5,0.9c-0.4,0.6-0.5,1.4-0.5,2.5c0,2.3,0.7,3.4,2,3.4c1.3,0,2-1.2,2-3.5c0-1.1-0.2-1.9-0.5-2.5
			C96,54.9,95.5,54.6,94.9,54.6z"/>
		<path class="st1" d="M103.2,50.5c-0.2-0.1-0.4-0.1-0.7-0.1c-0.8,0-1.2,0.5-1.2,1.5v1.8h1.7v1h-1.7v7.6H100v-7.6h-1.2v-1h1.2v-1.7
			c0-0.8,0.2-1.4,0.6-1.9c0.4-0.5,1-0.7,1.8-0.7c0.2,0,0.5,0,0.8,0.1V50.5z"/>
		<path class="st1" d="M104.8,58.3c0,2.1,0.8,3.1,2.3,3.1c0.7,0,1.3-0.2,2-0.7v1.2c-0.7,0.4-1.4,0.6-2.2,0.6c-1.1,0-1.9-0.4-2.5-1.2
			c-0.6-0.8-0.9-1.9-0.9-3.4c0-1.3,0.3-2.4,0.9-3.2c0.6-0.8,1.4-1.2,2.4-1.2c1.9,0,2.8,1.3,2.8,4v0.8H104.8z M108.4,57.3
			c0-1.9-0.5-2.8-1.6-2.8c-0.5,0-1,0.2-1.3,0.7c-0.3,0.5-0.5,1.2-0.6,2.1H108.4z"/>
		<path class="st1" d="M110.9,62.1v-1.2c0.6,0.4,1.3,0.6,1.9,0.6c1,0,1.5-0.5,1.5-1.4c0-0.3-0.1-0.6-0.3-0.8
			c-0.2-0.2-0.6-0.5-1.1-0.8c-0.8-0.5-1.4-0.9-1.6-1.3c-0.2-0.4-0.4-0.8-0.4-1.3c0-0.7,0.3-1.3,0.8-1.7c0.5-0.5,1.2-0.7,1.9-0.7
			c0.6,0,1.2,0.1,1.7,0.3V55c-0.6-0.3-1.1-0.5-1.6-0.5c-0.5,0-0.8,0.1-1.1,0.4c-0.3,0.2-0.4,0.6-0.4,1c0,0.3,0.1,0.5,0.3,0.8
			c0.2,0.2,0.6,0.5,1.2,0.9c0.8,0.5,1.4,0.9,1.6,1.3c0.2,0.4,0.4,0.8,0.4,1.3c0,0.7-0.2,1.3-0.7,1.7c-0.5,0.5-1.2,0.7-2,0.7
			C112,62.5,111.4,62.4,110.9,62.1z"/>
		<path class="st1" d="M116.9,62.1v-1.2c0.6,0.4,1.3,0.6,1.9,0.6c1,0,1.5-0.5,1.5-1.4c0-0.3-0.1-0.6-0.3-0.8
			c-0.2-0.2-0.6-0.5-1.1-0.8c-0.8-0.5-1.4-0.9-1.6-1.3c-0.2-0.4-0.4-0.8-0.4-1.3c0-0.7,0.3-1.3,0.8-1.7c0.5-0.5,1.2-0.7,1.9-0.7
			c0.6,0,1.2,0.1,1.7,0.3V55c-0.6-0.3-1.1-0.5-1.6-0.5c-0.5,0-0.8,0.1-1.1,0.4c-0.3,0.2-0.4,0.6-0.4,1c0,0.3,0.1,0.5,0.3,0.8
			c0.2,0.2,0.6,0.5,1.2,0.9c0.8,0.5,1.4,0.9,1.6,1.3c0.2,0.4,0.4,0.8,0.4,1.3c0,0.7-0.2,1.3-0.7,1.7c-0.5,0.5-1.2,0.7-2,0.7
			C118.1,62.5,117.4,62.4,116.9,62.1z"/>
		<path class="st1" d="M123.9,51.8c-0.2,0-0.4-0.1-0.6-0.2c-0.2-0.2-0.3-0.4-0.3-0.6c0-0.3,0.1-0.5,0.3-0.6c0.2-0.2,0.4-0.2,0.6-0.2
			c0.2,0,0.4,0.1,0.6,0.2c0.2,0.2,0.3,0.4,0.3,0.6c0,0.2-0.1,0.5-0.2,0.6C124.3,51.7,124.1,51.8,123.9,51.8z M123.3,62.4v-8.7h1.2
			v8.7H123.3z"/>
		<path class="st1" d="M129.5,62.5c-1,0-1.8-0.4-2.4-1.2c-0.6-0.8-0.8-1.9-0.8-3.2c0-1.4,0.3-2.6,0.9-3.4c0.6-0.8,1.4-1.2,2.4-1.2
			c1,0,1.8,0.4,2.4,1.2c0.6,0.8,0.9,1.9,0.9,3.2c0,1.4-0.3,2.6-0.9,3.4C131.4,62.1,130.6,62.5,129.5,62.5z M129.5,54.6
			c-0.6,0-1.1,0.3-1.5,0.9c-0.4,0.6-0.5,1.4-0.5,2.5c0,2.3,0.7,3.4,2,3.4c1.3,0,2-1.2,2-3.5c0-1.1-0.2-1.9-0.5-2.5
			C130.6,54.9,130.2,54.6,129.5,54.6z"/>
		<path class="st1" d="M139.1,62.4v-5.8c0-1.3-0.5-2-1.6-2c-0.5,0-1,0.2-1.3,0.6c-0.3,0.4-0.5,0.9-0.5,1.6v5.6h-1.2v-8.7h1.2V55h0
			c0.4-1,1.2-1.5,2.2-1.5c1.6,0,2.4,0.9,2.4,2.8v6.1H139.1z"/>
		<path class="st1" d="M146.4,62.4V61h0c-0.4,1-1.2,1.5-2.2,1.5c-0.6,0-1.2-0.2-1.5-0.7c-0.4-0.5-0.6-1-0.6-1.7
			c0-1.5,0.8-2.4,2.3-2.8l2.1-0.5v-0.6c0-1.1-0.5-1.7-1.5-1.7c-0.7,0-1.4,0.3-2.2,0.9v-1.2c0.8-0.5,1.6-0.7,2.4-0.7
			c1.7,0,2.6,0.9,2.6,2.8v6H146.4z M146.4,57.8l-1.7,0.4c-1,0.2-1.4,0.8-1.4,1.7c0,0.5,0.1,0.9,0.4,1.1c0.2,0.3,0.6,0.4,1,0.4
			c0.6,0,1-0.2,1.3-0.7c0.3-0.4,0.5-1,0.5-1.7V57.8z"/>
		<path class="st1" d="M149.7,62.4V49.5h1.2v12.9H149.7z"/>
	</g>
</g>
</svg>
