<svg id="Capa_1" enable-background="new 0 0 512.027 512.027" height="24" viewBox="0 0 512.027 512.027" width="24" xmlns="http://www.w3.org/2000/svg"><g><path d="m497.099 97.371c-22.102-42.38-66.476-71.321-117.622-71.321-44.729 0-84.28 22.134-108.282 56.035-7.505 10.6-23.212 10.6-30.717 0-24.003-33.9-63.553-56.035-108.282-56.035-51.285-.137-92.982 29.004-115.05 71.321l239.719 32.544z" fill="#f37"/><path d="m379.478 26.049c-44.729 0-84.28 22.134-108.282 56.034-3.723 5.259-9.465 7.905-15.223 7.946v39.764l.892.121 240.234-32.544c-22.102-42.379-66.475-71.321-117.621-71.321z" fill="#cc295f"/><path d="m512.027 158.459c0-22.036-5.395-42.81-14.928-61.088h-479.953c-10.997 21.088-17.125 45.446-17.125 71.09h-.021c0 2.379.046 4.748.126 7.109l256.161 33.445 255.137-33.445c.397-5.641.603-11.344.603-17.111z" fill="#ff8856"/><path d="m255.973 97.371v111.603l.315.041 255.137-33.445c.396-5.641.603-11.345.603-17.112 0-22.036-5.395-42.81-14.928-61.088h-241.127z" fill="#ff6c6c"/><path d="m511.424 175.57h-511.298c.931 27.399 7.19 53.542 17.184 78.199l240.132 33.19 235.669-33.19c9.819-24.463 16.372-50.573 18.313-78.199z" fill="#fcf983"/><path d="m255.973 286.757 1.47.203 235.669-33.19c9.818-24.464 16.372-50.574 18.313-78.199h-255.452z" fill="#ffed00"/><path d="m17.31 253.77c11.394 28.11 27.636 54.289 46.362 78.199l192.615 31.781 191.66-31.781c18.033-23.723 33.789-49.856 45.164-78.199z" fill="#00e1c0"/><path d="m255.973 363.699.315.052 191.66-31.781c18.033-23.723 33.789-49.856 45.164-78.199h-237.139z" fill="#00cacd"/><path d="m140.696 410.169 113.86 25.176 118.099-25.176c25.904-21.917 52.429-48.12 75.293-78.2h-384.275c23.347 29.813 50.551 56.097 77.023 78.2z" fill="#bcfff7"/><path d="m255.973 435.345 116.682-24.874c25.904-21.917 52.429-48.12 75.293-78.199h-191.975z" fill="#7cf0ff"/><path d="m247.084 483.58c5.584 3.117 12.362 3.206 18.007.201 18.419-9.803 62.03-35.087 107.563-73.613h-231.958c45.257 37.789 88.369 63.353 106.388 73.412z" fill="#8660ff"/><path d="m255.973 485.975c3.129.052 6.268-.674 9.118-2.191 18.419-9.802 62.03-35.087 107.563-73.613h-116.681z" fill="#5f29cc"/></g></svg>