<svg id="Capa_1" enable-background="new 0 0 512 512" height="512" viewBox="0 0 512 512" width="512" xmlns="http://www.w3.org/2000/svg"><g><g><path d="m43.152 26.943-22.991-12.355v63.547l40.546 39.525h205.294l18.728-48.661-18.728-41.915c-77.129 20.69-150.166 38.917-222.849-.141z" fill="#fd445f"/><path d="m20.161 396.975 7.009 3.766c37.176 19.977 73.98 27.189 110.367 27.188 43.466-.001 86.329-10.297 128.464-21.421l18.728-47.706-18.728-41.051-245.84 22.354v56.87z" fill="#b782d7"/><path d="m279.668 402.877c78.858-21.027 153.344-38.327 229.812.588l2.52 1.282v-62.63l-45.94-39.448-170.418 12.387-29.641 2.695v88.758c4.564-1.205 9.12-2.42 13.667-3.632z" fill="#9244c2"/><path d="m512 83.234v-62.827c-81.705-37.457-162.284-15.815-240.342 5.158-1.888.507-3.773 1.014-5.657 1.519v90.576h126.302z" fill="#e1105a"/></g><g><g><path d="m20.161 334.345 7.009 3.766c37.176 19.977 73.98 27.189 110.367 27.188 43.466-.002 86.329-10.297 128.464-21.421l22.691-41.209-22.691-47.548-245.84 22.354v56.87z" fill="#79e1f5"/><path d="m279.668 340.246c78.858-21.027 153.344-38.327 229.812.588l2.52 1.283v-59.605l-45.94-42.474-170.418 12.387-29.641 2.695v88.758c4.564-1.205 9.12-2.419 13.667-3.632z" fill="#31c3e7"/><path d="m42.737 89.412-22.576-11.277v62.25s16.721 19.651 17.624 19.94c30.914 9.875 47.468 13.819 80.131 18.115 23.188 2.197 46.486 1.804 69.638-.563 25.501-3.238 50.435-8.747 75.301-14.501 1.048-.242 2.097-.485 3.145-.728l18.728-37.679-18.728-36.55c-77.332 19.704-150.52 37.329-223.263.993z" fill="#f8b400"/></g></g><path d="m479.695 147.679c11.066 2.376 32.305-2.372 32.305-2.372v-62.073c-81.794-36.692-162.916-16.008-241.497 4.036-1.503.383-3.003.766-4.503 1.148v74.229c45.835-10.62 92.263-21.567 140.04-22.621 24.877-.549 49.568 2.482 73.655 7.653z" fill="#fd9127"/><g><path d="m153.817 227.672c-46.109.63-93.661-11.334-133.656-14.146v63.948l7.424 3.708c35.545 17.756 70.91 24.25 105.977 24.249 44.729-.001 88.968-10.57 132.439-21.813l18.728-35.789-18.728-35.674c-36.79 8.126-73.858 14.994-112.184 15.517z" fill="#1fc979"/><path d="m490.504 200.79c-16.795-5.631-34.768-9.513-52.588-11.868-19.927-1.891-39.958-1.355-59.848.675-25.138 3.165-49.83 8.375-74.359 13.981-12.563 2.871-25.12 5.798-37.709 8.578v71.463c3.868-1 7.73-2.005 11.585-3.009 80.389-20.936 156.321-40.712 231.496.31l2.918 1.592v-64.46c-.67-.353-14.891-14.64-21.495-17.262z" fill="#19a995"/></g><g><path d="m42.277 150.559-22.116-10.174v73.141l7.884 3.627c36.515 16.798 72.841 22.887 108.859 22.886 43.578-.002 86.698-8.919 129.097-18.571l22.691-37.648-22.691-32.913c-77.348 17.756-150.614 33.285-223.724-.348z" fill="#fff594"/><path d="m272.259 149.467c-2.089.481-4.175.96-6.258 1.438v70.562c4.697-1.069 9.385-2.147 14.063-3.223 79.66-18.323 154.903-35.63 229.981-1.092l1.955.899v-72.745c-81.4-32.258-161.834-13.759-239.741 4.161z" fill="#fedd61"/></g><g><path d="m0 0h30v512h-30z" fill="#badbee"/></g></g></svg>